<svg width="20" height="20" viewBox="0 0 20 20" fill="none" xmlns="http://www.w3.org/2000/svg">
<g filter="url(#filter0_d_770_15174)">
<path d="M4.15627 4.29489C3.95955 4.29489 3.78258 4.17609 3.70991 3.99478C3.63802 3.81347 3.68542 3.60793 3.8292 3.47506C5.57596 1.88311 7.86384 1 10.2386 1C12.6134 1 14.9015 1.88313 16.6481 3.47506C16.8416 3.65325 16.8519 3.95335 16.6718 4.14405C16.4909 4.33553 16.1883 4.34568 15.9947 4.1675C14.4249 2.73966 12.3708 1.94713 10.2385 1.94713C8.10623 1.94713 6.05221 2.73958 4.48236 4.1675C4.39388 4.24956 4.27715 4.29489 4.15627 4.29489Z" fill="#322C01"/>
<path d="M18.072 9.12323C17.8919 9.12323 17.7268 9.02398 17.6446 8.86532C16.2462 6.16358 13.4085 4.4856 10.2381 4.4856C7.06765 4.4856 4.22991 6.16352 2.83157 8.86532C2.71069 9.09822 2.42234 9.19043 2.18691 9.07085C1.95068 8.95206 1.85825 8.66603 1.97835 8.43313C3.54182 5.41328 6.7067 3.53763 10.2381 3.53763C13.7696 3.53763 16.9344 5.41328 18.4979 8.43313C18.5738 8.58006 18.5675 8.7559 18.4806 8.89657C18.3937 9.03724 18.2387 9.12323 18.072 9.12323Z" fill="#322C01"/>
<path d="M12.4173 19C12.2159 19 12.0365 18.8758 11.967 18.6882C11.8983 18.5014 11.9551 18.2912 12.1092 18.163C13.2532 17.2127 13.63 14.7759 12.8708 13.2433C12.3075 12.1078 11.2899 11.2152 10.3395 11.0222C9.88755 10.9112 9.40958 11.0237 9.05724 11.3246C8.70094 11.5942 8.48527 12.0077 8.46947 12.4508C8.48211 12.9314 8.69542 13.3839 9.05963 13.702C9.64979 14.2201 9.97448 14.8266 9.99976 15.4557C10.025 16.0809 9.7588 16.6858 9.20814 17.254C8.07919 18.4192 6.38618 17.9292 5.59761 17.2321C4.22453 16.0364 3.40686 14.3357 3.33486 12.5273C3.26613 10.7423 3.94003 9.00645 5.20014 7.72561C6.49341 6.41811 8.24336 5.64989 10.0913 5.57946C11.9392 5.50912 13.7443 6.1406 15.1356 7.34492C16.1389 8.22568 17.8366 10.3193 17.8366 12.5741V12.5749C17.8374 12.7007 17.7868 12.8211 17.6967 12.9102C17.6067 12.9993 17.485 13.0493 17.3578 13.0493C17.2306 13.0493 17.1089 12.9993 17.0189 12.9102C16.9288 12.8211 16.8783 12.7007 16.8791 12.5749C16.8791 10.6555 15.3835 8.82981 14.5002 8.05374H14.4994C13.2938 7.00962 11.7304 6.46179 10.1299 6.52275C8.52846 6.58371 7.0116 7.24878 5.89135 8.38122C4.81218 9.47692 4.23387 10.9625 4.29234 12.4912C4.35475 14.0426 5.05789 15.5009 6.23661 16.5254C6.48784 16.7474 7.68236 17.4586 8.51655 16.5974C8.87997 16.2222 9.05693 15.851 9.04272 15.4931C9.02376 15.0312 8.6959 14.649 8.42333 14.4099C7.85057 13.9128 7.51874 13.1977 7.51085 12.4436C7.52507 11.7261 7.86321 11.0517 8.43203 10.6062C9.00797 10.1115 9.78929 9.92081 10.5312 10.0935C11.7762 10.346 13.0324 11.419 13.7299 12.8265C14.6898 14.7639 14.211 17.6532 12.7242 18.8888H12.725C12.6389 18.9607 12.5298 18.9998 12.4169 18.9998L12.4173 19Z" fill="#322C01"/>
<path d="M10.307 18.7265C10.115 18.7265 9.94196 18.6132 9.86611 18.4389C9.79106 18.2638 9.82898 18.0614 9.96171 17.9247C10.6253 17.2463 10.9785 16.3272 10.9374 15.384C10.89 14.3571 10.4191 13.3942 9.63306 12.7213C9.43555 12.547 9.41817 12.2477 9.59355 12.0523C9.76973 11.8569 10.0723 11.8389 10.2698 12.0132C11.2511 12.8564 11.838 14.0623 11.8949 15.3471C11.9471 16.5476 11.4976 17.7176 10.6522 18.5811C10.5622 18.6741 10.4373 18.7265 10.307 18.7265Z" fill="#322C01"/>
<path d="M14.9739 18.7273C14.8135 18.7273 14.6634 18.6476 14.5749 18.5148C14.4865 18.3827 14.4707 18.2154 14.5323 18.0693C16.2782 13.9811 14.5054 10.8878 12.8882 9.80621C11.2647 8.72067 8.92154 8.3518 7.34623 9.97658V9.9758C6.65495 10.6784 6.2868 11.6318 6.32788 12.6111C6.36975 13.5911 6.81691 14.5102 7.56586 15.1526C7.76336 15.3269 7.78153 15.6262 7.60615 15.8216C7.42997 16.0178 7.12739 16.0349 6.92987 15.8615C5.98657 15.0479 5.4225 13.8858 5.37115 12.6493C5.31901 11.4122 5.78355 10.2087 6.65496 9.31998C8.32666 7.59594 11.1099 7.47323 13.4248 9.02065C15.3043 10.2781 17.386 13.8231 15.4149 18.4379V18.4371C15.3406 18.613 15.166 18.7271 14.974 18.7271L14.9739 18.7273Z" fill="#322C01"/>
</g>
<defs>
<filter id="filter0_d_770_15174" x="-1" y="-1" width="22" height="22" filterUnits="userSpaceOnUse" color-interpolation-filters="sRGB">
<feFlood flood-opacity="0" result="BackgroundImageFix"/>
<feColorMatrix in="SourceAlpha" type="matrix" values="0 0 0 0 0 0 0 0 0 0 0 0 0 0 0 0 0 0 127 0" result="hardAlpha"/>
<feMorphology radius="1" operator="dilate" in="SourceAlpha" result="effect1_dropShadow_770_15174"/>
<feOffset/>
<feComposite in2="hardAlpha" operator="out"/>
<feColorMatrix type="matrix" values="0 0 0 0 0.975378 0 0 0 0 0.878 0 0 0 0 0.197493 0 0 0 0.4 0"/>
<feBlend mode="normal" in2="BackgroundImageFix" result="effect1_dropShadow_770_15174"/>
<feBlend mode="normal" in="SourceGraphic" in2="effect1_dropShadow_770_15174" result="shape"/>
</filter>
</defs>
</svg>
